<svg xmlns="http://www.w3.org/2000/svg" width="16" height="16" fill="#1a3e6c" class="bi bi-handshake" viewBox="0 0 16 16">
  <path d="M2.221 1.347c.38-.33.916-.513 1.466-.513.55 0 1.085.183 1.465.513l.118.102c.075.065.195.065.27 0l.118-.102c.38-.33.915-.513 1.465-.513.55 0 1.085.183 1.465.513l.136.118c.075.065.195.065.27 0l.137-.118c.379-.33.915-.513 1.465-.513s1.086.183 1.465.513l.118.102c.075.065.195.065.27 0l.118-.102c.38-.33.916-.513 1.466-.513.55 0 1.085.183 1.465.513l.136.118c.07.06.183.072.263.033l.421-.21c.214-.107.472-.089.664.048.192.137.292.37.255.603l-.071.442a.188.188 0 0 1-.226.152l-.46-.076a.188.188 0 0 1-.157-.188v-.4a.188.188 0 0 0-.188-.188H13.5a.188.188 0 0 0-.188.188v.4a.188.188 0 0 1-.157.188l-.46.076a.188.188 0 0 1-.226-.152l-.071-.442c-.037-.233.063-.466.255-.603a.58.58 0 0 1 .664-.048l.421.21c.08.04.193.027.263-.033l.136-.118c.38-.33.916-.513 1.466-.513.55 0 1.085.183 1.465.513l.118.102c.075.065.195.065.27 0l.118-.102c.38-.33.915-.513 1.465-.513.55 0 1.085.183 1.465.513l.136.118z"/>
</svg>
